<svg width="32" height="32" viewBox="0 0 32 32" fill="none" xmlns="http://www.w3.org/2000/svg">
<path d="M30.6667 8.00001V2.66668C30.6667 2.31305 30.5262 1.97392 30.2762 1.72387C30.0261 1.47382 29.687 1.33334 29.3333 1.33334H2.66668C2.31305 1.33334 1.97392 1.47382 1.72387 1.72387C1.47382 1.97392 1.33334 2.31305 1.33334 2.66668V8.00001H30.6667Z" fill="#2EC5CE"/>
<path d="M1.33334 10.6667V29.3333C1.33334 29.687 1.47382 30.0261 1.72387 30.2761C1.97392 30.5262 2.31305 30.6667 2.66668 30.6667H9.33334V10.6667H1.33334Z" fill="#D6B1FF"/>
<path d="M12 30.6667H29.3333C29.687 30.6667 30.0261 30.5262 30.2761 30.2761C30.5262 30.0261 30.6667 29.687 30.6667 29.3333V10.6667H12V30.6667Z" fill="#8C30F5"/>
</svg>
