<svg width="102" height="40" viewBox="0 0 102 40" fill="none" xmlns="http://www.w3.org/2000/svg">
<path d="M19.5315 39.9998C16.9539 40.0017 14.4023 39.4839 12.0294 38.4774C9.65639 37.4709 7.51068 35.9963 5.72046 34.1418C2.05123 30.3484 0 25.2774 0 19.9998C0 14.7222 2.05123 9.65123 5.72046 5.85783C7.51185 4.00488 9.65779 2.53135 12.0305 1.52499C14.4032 0.518623 16.9542 0 19.5315 0C22.1088 0 24.6597 0.518623 27.0324 1.52499C29.4051 2.53135 31.5511 4.00488 33.3425 5.85783C37.0117 9.65123 39.0629 14.7222 39.0629 19.9998C39.0629 25.2774 37.0117 30.3484 33.3425 34.1418C31.5523 35.9964 29.4066 37.471 27.0336 38.4775C24.6606 39.484 22.1091 40.0018 19.5315 39.9998ZM23.2775 29.2338V32.2338C23.5055 32.2808 23.7377 32.3046 23.9705 32.3048C24.6318 32.3206 25.2911 32.2245 25.9205 32.0208C26.4464 31.8338 26.9209 31.5254 27.3055 31.1208C27.7352 30.6547 28.0895 30.1243 28.3555 29.5488C28.6645 28.9078 28.9905 28.1398 29.3245 27.2678L34.0105 14.7408H30.4795L27.5945 23.0848L24.5475 14.7408H20.6225L25.7935 27.2408C25.6099 27.8063 25.3455 28.3422 25.0085 28.8318C24.8843 28.986 24.7255 29.1086 24.5449 29.1896C24.3643 29.2706 24.1671 29.3077 23.9695 29.2978C23.7367 29.2976 23.5045 29.2738 23.2765 29.2268L23.2775 29.2338ZM11.0895 25.5708C11.2568 25.8393 11.4537 26.0882 11.6765 26.3128C11.9267 26.5663 12.2099 26.7849 12.5185 26.9628C12.8592 27.1587 13.2239 27.3096 13.6035 27.4118C14.0252 27.5242 14.46 27.5797 14.8965 27.5768C15.64 27.5869 16.3779 27.446 17.0655 27.1628C17.706 26.8909 18.2748 26.4744 18.7275 25.9458C19.2171 25.3572 19.5788 24.673 19.7895 23.9368C20.0499 23.0224 20.1742 22.0745 20.1585 21.1238V20.6508C20.2784 18.9912 19.805 17.3428 18.8225 15.9998C18.3261 15.4639 17.7163 15.0455 17.0376 14.7753C16.3589 14.505 15.6284 14.3898 14.8995 14.4378C14.2003 14.4363 13.5116 14.6083 12.8952 14.9383C12.2788 15.2683 11.7539 15.7461 11.3675 16.3288V10.7288H7.81246V27.2718H11.0895V25.5718V25.5708ZM14.0445 24.5788C13.6895 24.5851 13.3372 24.5172 13.01 24.3794C12.6828 24.2416 12.388 24.0371 12.1445 23.7788C11.5955 23.1458 11.3178 22.3221 11.3715 21.4858V20.2998C11.3432 19.9089 11.3975 19.5165 11.5308 19.148C11.6642 18.7794 11.8736 18.4431 12.1455 18.1608C12.6606 17.6819 13.3423 17.4228 14.0455 17.4388C14.384 17.428 14.7206 17.4936 15.0303 17.6307C15.34 17.7678 15.6149 17.9729 15.8345 18.2308C16.3405 18.9327 16.5818 19.7911 16.5155 20.6538V21.1268C16.5792 22.0399 16.3326 22.9476 15.8155 23.7028C15.6096 23.9774 15.342 24.1997 15.0344 24.3517C14.7267 24.5037 14.3876 24.5812 14.0445 24.5778V24.5788Z" fill="#01BAB3"/>
<path d="M49.7174 28.2998C48.5831 28.3995 47.4531 28.0653 46.5554 27.3648C46.1861 26.9382 45.9076 26.4408 45.7369 25.9031C45.5662 25.3653 45.5068 24.7983 45.5624 24.2368V18.4658H43.9464V15.9268H45.5624V13.1568H48.6094V15.9268H51.5644V18.4658H48.6094V23.7748C48.5624 24.3001 48.6969 24.8257 48.9904 25.2638C49.1813 25.4358 49.4067 25.565 49.6517 25.6426C49.8966 25.7202 50.1553 25.7445 50.4104 25.7138C50.8717 25.7138 51.3334 25.6908 51.7954 25.6448V28.1838C51.5027 28.2145 51.1987 28.2415 50.8834 28.2648C50.5681 28.2882 50.1794 28.2998 49.7174 28.2998ZM53.9874 15.9278H56.8034V17.7278C56.925 17.4592 57.0802 17.2072 57.2654 16.9778C57.4695 16.7204 57.7108 16.495 57.9814 16.3088C58.2643 16.1135 58.5708 15.9546 58.8934 15.8358C59.246 15.7087 59.6186 15.646 59.9934 15.6508C60.2442 15.6481 60.4948 15.6635 60.7434 15.6968C60.8801 15.7107 61.0144 15.7416 61.1434 15.7888V18.4888C60.9518 18.4161 60.7549 18.3583 60.5544 18.3158C60.2389 18.2549 59.9177 18.2277 59.5964 18.2348C59.1918 18.2234 58.7897 18.3023 58.4194 18.4658C58.1103 18.6074 57.837 18.8166 57.6194 19.0778C57.4081 19.3389 57.2547 19.6419 57.1694 19.9668C57.0762 20.3131 57.0298 20.6703 57.0314 21.0288V28.1618H53.9844L53.9874 15.9278ZM68.2984 28.4348C67.4941 28.439 66.6947 28.3103 65.9324 28.0538C65.2076 27.8125 64.5427 27.4191 63.9824 26.8998C63.4052 26.3502 62.9559 25.6804 62.6664 24.9378C62.3262 24.051 62.1615 23.1065 62.1814 22.1568V21.6948C62.163 20.7881 62.3209 19.8864 62.6464 19.0398C62.9263 18.3271 63.36 17.6849 63.9164 17.1588C64.456 16.6581 65.0924 16.2732 65.7864 16.0278C66.5203 15.7695 67.2934 15.6406 68.0714 15.6468C68.8672 15.5903 69.6662 15.6958 70.4201 15.9569C71.1739 16.218 71.867 16.6293 72.4574 17.1658C72.9866 17.7619 73.3915 18.4576 73.6485 19.212C73.9056 19.9665 74.0096 20.7647 73.9544 21.5598V22.8488H65.2984C65.3016 23.3311 65.3955 23.8084 65.5754 24.2558C65.7249 24.6227 65.9533 24.9521 66.2444 25.2208C66.5213 25.4691 66.8479 25.6556 67.2024 25.7678C67.5577 25.8831 67.9289 25.9419 68.3024 25.9418C68.9138 25.9779 69.5243 25.8578 70.0764 25.5928C70.4734 25.364 70.7762 25.0014 70.9304 24.5698H73.7234C73.6345 25.1515 73.4267 25.7086 73.1129 26.2064C72.799 26.7041 72.3859 27.1319 71.8994 27.4628C70.8237 28.1407 69.5691 28.4794 68.2984 28.4348ZM68.1834 18.1398C67.8289 18.1398 67.4759 18.1862 67.1334 18.2778C66.8034 18.3624 66.4934 18.5116 66.2214 18.7168C65.9469 18.933 65.7259 19.2095 65.5754 19.5248C65.3958 19.9077 65.3013 20.3249 65.2984 20.7478H70.9984C70.9977 20.3131 70.9156 19.8823 70.7564 19.4778C70.6276 19.1623 70.4212 18.8844 70.1564 18.6698C69.8951 18.4663 69.5912 18.3245 69.2674 18.2548C68.9115 18.1762 68.5479 18.1376 68.1834 18.1398ZM76.1464 15.9238H78.9634V17.7238C79.301 17.123 79.7907 16.6215 80.3834 16.2698C81.1878 15.8166 82.1042 15.6006 83.0264 15.6468C83.6357 15.5984 84.2482 15.6803 84.8233 15.8872C85.3984 16.0942 85.9227 16.4213 86.3614 16.8468C87.1527 17.8202 87.5457 19.0573 87.4614 20.3088V28.1568H84.4104V20.9998C84.4647 20.2641 84.2657 19.5319 83.8464 18.9248C83.5978 18.6722 83.2955 18.4788 82.9619 18.359C82.6283 18.2392 82.272 18.1961 81.9194 18.2328C81.4924 18.2202 81.0676 18.299 80.6734 18.4638C80.3519 18.6052 80.0644 18.8139 79.8304 19.0758C79.6072 19.3296 79.4417 19.6289 79.3454 19.9528C79.244 20.2935 79.1934 20.6474 79.1954 21.0028V28.1588H76.1464V15.9238ZM94.7284 28.4348C94.0195 28.4695 93.3117 28.3479 92.655 28.0787C91.9984 27.8094 91.4089 27.3991 90.9284 26.8768C89.8965 25.5295 89.398 23.8489 89.5284 22.1568V21.6948C89.4148 20.0711 89.9176 18.4642 90.9364 17.1948C91.4175 16.6778 92.0053 16.2716 92.6591 16.0044C93.3128 15.7373 94.0169 15.6156 94.7224 15.6478C95.4905 15.6333 96.249 15.8202 96.9224 16.1898C97.5445 16.5365 98.0778 17.0225 98.4804 17.6098V11.9998H101.527V28.1578H98.6984V26.3578C98.3457 26.9579 97.846 27.4583 97.2464 27.8118C96.4831 28.2539 95.6098 28.4699 94.7284 28.4348ZM95.4464 25.8498C96.2565 25.8833 97.0471 25.5958 97.6464 25.0498C97.948 24.7246 98.1787 24.3401 98.3238 23.9209C98.469 23.5017 98.5253 23.057 98.4894 22.6148V21.2328C98.5206 20.8169 98.4592 20.3993 98.3094 20.01C98.1596 19.6207 97.9253 19.2696 97.6234 18.9818C97.0144 18.4704 96.2372 18.2031 95.4424 18.2318C95.0612 18.2194 94.6819 18.2905 94.3311 18.4401C93.9802 18.5897 93.6664 18.8142 93.4114 19.0978C92.8347 19.8363 92.5547 20.7636 92.6264 21.6978V22.1598C92.5485 23.1543 92.8358 24.143 93.4344 24.9408C93.6814 25.2321 93.9901 25.4647 94.338 25.6219C94.686 25.7791 95.0646 25.857 95.4464 25.8498Z" fill="black" fill-opacity="0.85"/>
</svg>
